<?xml version="1.0" encoding="iso-8859-1"?>
<!-- Uploaded to: SVG Repo, www.svgrepo.com, Generator: SVG Repo Mixer Tools -->
<svg height="800px" width="800px" version="1.1" id="Layer_1" xmlns="http://www.w3.org/2000/svg" xmlns:xlink="http://www.w3.org/1999/xlink" 
	 viewBox="0 0 512 512" xml:space="preserve">
<path style="fill:#FFBE00;" d="M405.75,286.71l-22.028-38.16h-13.467c-8.947,0-16.2-7.253-16.2-16.2V90.477
	c0-0.213-0.179-0.393-0.393-0.393h-9.901c-8.947,0-16.2-7.253-16.2-16.2V61.837c0-15.021,12.219-27.24,27.24-27.24H484.76
	c15.021,0,27.24,12.22,27.24,27.24v159.472c0,15.02-12.219,27.24-27.24,27.24h-28.921l-22.028,38.16
	C427.578,297.506,411.972,297.487,405.75,286.71z"/>
<path style="fill:#FFD155;" d="M78.189,286.71l-22.028-38.161H27.24C12.219,248.549,0,236.33,0,221.309V61.837
	c0-15.021,12.219-27.24,27.24-27.24h129.958c15.026,0,27.251,12.22,27.251,27.24v12.047c0,8.947-7.253,16.2-16.2,16.2h-9.901
	c-0.213,0-0.393,0.179-0.393,0.393v141.872c0,8.947-7.253,16.2-16.2,16.2h-13.469l-22.038,38.162
	C100.014,297.508,84.423,297.508,78.189,286.71z"/>
<path style="fill:#FFE49C;" d="M256.006,432.447L256.006,432.447c-5.788,0-11.136-3.088-14.029-8.1l-35.456-61.414H158.35
	c-18.083,0-32.794-14.711-32.794-32.794V90.477c0-18.083,14.711-32.794,32.794-32.794h195.312c18.083,0,32.794,14.711,32.794,32.794
	v239.662c0,18.083-14.711,32.794-32.794,32.794h-48.17l-35.458,61.414C267.142,429.359,261.793,432.447,256.006,432.447z"/>
<path style="fill:#FFD155;" d="M353.662,57.683h-97.657v374.762c5.788,0,11.136-3.088,14.029-8.1l35.458-61.414h48.17
	c18.083,0,32.794-14.711,32.794-32.794V90.477C386.456,72.394,371.745,57.683,353.662,57.683z"/>
<g>
	<path style="fill:#8DC3E9;" d="M256.003,207.22c-27.743,0-50.314-22.57-50.314-50.314s22.57-50.314,50.314-50.314
		c27.743,0,50.315,22.57,50.315,50.314S283.746,207.22,256.003,207.22z"/>
	<path style="fill:#8DC3E9;" d="M328.521,315.53H183.484c-8.947,0-16.2-7.253-16.2-16.2c0-48.919,39.8-88.719,88.719-88.719
		c48.92,0,88.719,39.8,88.719,88.719C344.722,308.278,337.468,315.53,328.521,315.53z"/>
</g>
<path style="fill:#D1D3D4;" d="M450.894,477.403H61.118c-8.947,0-16.2-7.253-16.2-16.2c0-8.947,7.253-16.2,16.2-16.2h389.776
	c8.947,0,16.2,7.253,16.2,16.2C467.094,470.15,459.841,477.403,450.894,477.403z"/>
<g>
	<path style="fill:#48AEE2;" d="M306.317,156.906c0-27.742-22.569-50.311-50.311-50.314V207.22
		C283.747,207.219,306.317,184.649,306.317,156.906z"/>
	<path style="fill:#48AEE2;" d="M256.006,210.612v104.919h72.516c8.947,0,16.2-7.253,16.2-16.2
		C344.722,250.412,304.924,210.613,256.006,210.612z"/>
</g>
<path style="fill:#BCBEC0;" d="M450.894,445.003H256.006v32.4h194.888c8.947,0,16.2-7.253,16.2-16.2
	C467.094,452.256,459.841,445.003,450.894,445.003z"/>
</svg>